<?xml version="1.0" encoding="UTF-8" standalone="no"?>
<!DOCTYPE svg PUBLIC "-//W3C//DTD SVG 20010904//EN"
              "http://www.w3.org/TR/2001/REC-SVG-20010904/DTD/svg10.dtd">

<svg xmlns="http://www.w3.org/2000/svg"
     width="2in" height="2in"
     viewBox="0 0 600 600">
  <path id="名前なし"
        fill="none" stroke="black" stroke-width="1"
        d="M 179.00,510.00
        C 179.00,510.00 179.00,242.00 179.00,242.00
          179.00,242.00 321.00,242.00 321.00,242.00
          321.00,242.00 321.00,510.00 321.00,510.00
          321.00,510.00 179.00,510.00 179.00,510.00 Z
        M 384.00,411.00
        C 384.00,411.00 384.00,141.00 384.00,141.00
          384.00,141.00 276.00,141.00 276.00,141.00
          276.00,141.00 179.00,242.00 179.00,242.00
          179.00,242.00 321.00,242.00 321.00,242.00
          321.00,242.00 321.00,510.00 321.00,510.00
          321.00,510.00 384.00,411.00 384.00,411.00 Z
        M 321.00,242.00
        C 321.00,242.00 384.00,141.00 384.00,141.00
        M 384.00,233.00
        C 384.00,233.00 444.00,174.00 443.00,174.00
          444.00,174.00 444.00,331.50 444.00,331.50
          444.00,331.50 384.00,339.00 384.00,339.00
        M 443.00,174.00
        C 444.00,174.00 384.00,233.00 384.00,233.00
          384.00,233.00 384.00,174.00 384.00,174.00
          384.00,174.00 444.00,174.00 443.00,174.00 Z" />
</svg>
