<?xml version="1.0" encoding="UTF-8" standalone="no"?>
<!DOCTYPE svg PUBLIC "-//W3C//DTD SVG 20010904//EN"
              "http://www.w3.org/TR/2001/REC-SVG-20010904/DTD/svg10.dtd">

<svg xmlns="http://www.w3.org/2000/svg"
     width="6.4in" height="3.6in"
     viewBox="0 0 1920 1080">
  <path id="名前なし"
        fill="none" stroke="black" stroke-width="1"
        d="M 684.00,360.00
           C 684.00,360.00 1235.00,360.00 1235.00,360.00
             1235.00,360.00 1235.00,720.00 1235.00,720.00
             1235.00,720.00 684.00,720.00 684.00,720.00
             684.00,720.00 684.00,360.00 684.00,360.00 Z" />
  <path id="名前なし #1"
        fill="none" stroke="black" stroke-width="1"
        d="M 657.00,333.00
           C 657.00,333.00 711.00,333.00 711.00,333.00
             711.00,333.00 711.00,387.00 711.00,387.00
             711.00,387.00 657.00,387.00 657.00,387.00
             657.00,387.00 657.00,333.00 657.00,333.00 Z
           M 1208.00,333.00
           C 1208.00,333.00 1262.00,333.00 1262.00,333.00
             1262.00,333.00 1262.00,387.00 1262.00,387.00
             1262.00,387.00 1208.00,387.00 1208.00,387.00
             1208.00,387.00 1208.00,333.00 1208.00,333.00 Z
           M 657.00,453.00
           C 657.00,453.00 711.00,453.00 711.00,453.00
             711.00,453.00 711.00,506.00 711.00,506.00
             711.00,506.00 657.00,506.00 657.00,506.00
             657.00,506.00 657.00,453.00 657.00,453.00 Z
           M 1208.00,453.00
           C 1208.00,453.00 1262.00,453.00 1262.00,453.00
             1262.00,453.00 1262.00,506.00 1262.00,506.00
             1262.00,506.00 1208.00,506.00 1208.00,506.00
             1208.00,506.00 1208.00,453.00 1208.00,453.00 Z
           M 657.00,693.00
           C 657.00,693.00 711.00,693.00 711.00,693.00
             711.00,693.00 711.00,747.00 711.00,747.00
             711.00,747.00 657.00,747.00 657.00,747.00
             657.00,747.00 657.00,693.00 657.00,693.00 Z
           M 1208.00,693.00
           C 1208.00,693.00 1262.00,693.00 1262.00,693.00
             1262.00,693.00 1262.00,747.00 1262.00,747.00
             1262.00,747.00 1208.00,747.00 1208.00,747.00
             1208.00,747.00 1208.00,693.00 1208.00,693.00 Z
           M 657.00,573.00
           C 657.00,573.00 711.00,573.00 711.00,573.00
             711.00,573.00 711.00,627.00 711.00,627.00
             711.00,627.00 657.00,627.00 657.00,627.00
             657.00,627.00 657.00,573.00 657.00,573.00 Z
           M 1208.00,573.00
           C 1208.00,573.00 1262.00,573.00 1262.00,573.00
             1262.00,573.00 1262.00,627.00 1262.00,627.00
             1262.00,627.00 1208.00,627.00 1208.00,627.00
             1208.00,627.00 1208.00,573.00 1208.00,573.00 Z" />
</svg>
