<?xml version="1.0" encoding="UTF-8" standalone="no"?>
<!DOCTYPE svg PUBLIC "-//W3C//DTD SVG 20010904//EN"
              "http://www.w3.org/TR/2001/REC-SVG-20010904/DTD/svg10.dtd">

<svg xmlns="http://www.w3.org/2000/svg"
     width="3.33333in" height="3.33333in"
     viewBox="0 0 1000 1000">
  <path id="名前なし #1"
        fill="none" stroke="black" stroke-width="1"
        d="M 99.00,101.00
           C 99.00,101.00 900.00,101.00 900.00,101.00
             900.00,101.00 900.00,900.00 900.00,900.00
             900.00,900.00 99.00,900.00 99.00,900.00
             99.00,900.00 99.00,101.00 99.00,101.00 Z
           M 0.00,0.00
           C 0.00,0.00 99.00,101.00 99.00,101.00M 999.00,0.00
           C 999.00,0.00 900.00,101.00 900.00,101.00M 999.00,999.00
           C 999.00,999.00 900.00,900.00 900.00,900.00M 0.00,999.00
           C 0.00,999.00 99.00,900.00 99.00,900.00" />
</svg>
