<svg width="60" height="60" viewBox="0 0 60 60" fill="none" xmlns="http://www.w3.org/2000/svg">
<mask id="path-1-outside-1_207_5" maskUnits="userSpaceOnUse" x="9.5" y="7" width="41" height="45" fill="black">
<rect fill="white" x="9.5" y="7" width="41" height="45"/>
<path d="M44.9545 12.0909V47H37.0455L24.4318 28.6591H24.2273V47H14.75V12.0909H22.7955L35.2045 30.3636H35.4773V12.0909H44.9545Z"/>
</mask>
<path d="M44.9545 12.0909V47H37.0455L24.4318 28.6591H24.2273V47H14.75V12.0909H22.7955L35.2045 30.3636H35.4773V12.0909H44.9545Z" fill="url(#paint0_linear_207_5)"/>
<path d="M44.9545 12.0909H49.9545V7.09091H44.9545V12.0909ZM44.9545 47V52H49.9545V47H44.9545ZM37.0455 47L32.9257 49.8333L34.4158 52H37.0455V47ZM24.4318 28.6591L28.5516 25.8258L27.0615 23.6591H24.4318V28.6591ZM24.2273 28.6591V23.6591H19.2273V28.6591H24.2273ZM24.2273 47V52H29.2273V47H24.2273ZM14.75 47H9.75V52H14.75V47ZM14.75 12.0909V7.09091H9.75V12.0909H14.75ZM22.7955 12.0909L26.9318 9.28189L25.4439 7.09091H22.7955V12.0909ZM35.2045 30.3636L31.0682 33.1727L32.5561 35.3636H35.2045V30.3636ZM35.4773 30.3636V35.3636H40.4773V30.3636H35.4773ZM35.4773 12.0909V7.09091H30.4773V12.0909H35.4773ZM39.9545 12.0909V47H49.9545V12.0909H39.9545ZM44.9545 42H37.0455V52H44.9545V42ZM41.1652 44.1667L28.5516 25.8258L20.3121 31.4924L32.9257 49.8333L41.1652 44.1667ZM24.4318 23.6591H24.2273V33.6591H24.4318V23.6591ZM19.2273 28.6591V47H29.2273V28.6591H19.2273ZM24.2273 42H14.75V52H24.2273V42ZM19.75 47V12.0909H9.75V47H19.75ZM14.75 17.0909H22.7955V7.09091H14.75V17.0909ZM18.6591 14.8999L31.0682 33.1727L39.3409 27.5546L26.9318 9.28189L18.6591 14.8999ZM35.2045 35.3636H35.4773V25.3636H35.2045V35.3636ZM40.4773 30.3636V12.0909H30.4773V30.3636H40.4773ZM35.4773 17.0909H44.9545V7.09091H35.4773V17.0909Z" fill="#D9D9D9" mask="url(#path-1-outside-1_207_5)"/>
<defs>
<linearGradient id="paint0_linear_207_5" x1="30" y1="1" x2="30" y2="59" gradientUnits="userSpaceOnUse">
<stop stop-color="#2A2A2A"/>
<stop offset="0.505" stop-color="#2A2A2A"/>
<stop offset="1" stop-color="#808080"/>
</linearGradient>
</defs>
</svg>
