<?xml version="1.0" encoding="UTF-8" standalone="no"?>
<!DOCTYPE svg PUBLIC "-//W3C//DTD SVG 20010904//EN"
              "http://www.w3.org/TR/2001/REC-SVG-20010904/DTD/svg10.dtd">

<svg xmlns="http://www.w3.org/2000/svg"
     width="1.33333in" height="1.33333in"
     viewBox="0 0 400 400">
  <path id="名前なし"
        fill="none" stroke="black" stroke-width="1"
        d="M 186.00,28.00
           C 186.00,28.00 217.00,28.00 217.00,28.00
             217.00,28.00 337.00,307.00 337.00,307.00
             337.00,307.00 320.00,307.00 320.00,307.00
             320.00,307.00 209.00,53.00 209.00,53.00
             209.00,53.00 192.00,374.00 192.00,374.00
             192.00,374.00 170.00,374.00 170.00,374.00
             170.00,374.00 190.00,53.00 190.00,53.00
             190.00,53.00 87.00,307.00 87.00,307.00
             87.00,307.00 69.00,307.00 69.00,307.00
             69.00,307.00 186.00,28.00 186.00,28.00 Z" />
</svg>
